 <svg version="1.0" xmlns="http://www.w3.org/2000/svg" width="700.000000pt" height="681.000000pt" viewBox="0 0 700.000000 681.000000" preserveAspectRatio="xMidYMid meet">
<metadata>
Created by potrace 1.12, written by Peter Selinger 2001-2015
</metadata>
<g transform="translate(0.000000,681.000000) scale(0.100000,-0.100000)" fill="#000000" stroke="none">
<path d="M6361 6479 c-45 -18 -146 -83 -199 -128 -100 -85 -225 -265 -265
-381 -62 -178 -90 -311 -107 -502 -5 -54 -12 -103 -17 -110 -4 -7 -11 -195
-15 -418 -8 -481 -21 -831 -30 -846 -4 -6 -10 -46 -13 -90 -3 -43 -23 -153
-46 -244 -34 -139 -50 -186 -105 -295 -97 -196 -181 -292 -343 -391 -25 -16
-63 -29 -91 -32 -43 -4 -50 -2 -65 22 -11 16 -21 59 -26 109 -34 366 -180 799
-369 1097 -81 128 -110 166 -225 295 -109 122 -114 127 -165 162 -25 17 -54
41 -65 53 -42 47 -237 164 -360 215 -44 18 -240 71 -295 79 -19 3 -46 8 -60
11 -34 7 -259 7 -290 0 -14 -4 -41 -9 -60 -11 -61 -9 -212 -52 -285 -81 -273
-109 -554 -340 -741 -608 -150 -215 -213 -335 -295 -555 -68 -182 -149 -515
-149 -615 0 -27 -9 -97 -19 -154 -20 -109 -33 -131 -76 -131 -22 0 -123 56
-151 84 -8 9 -19 16 -23 16 -4 0 -26 18 -48 40 -153 150 -263 387 -323 695
-48 252 -55 351 -68 1060 -4 226 -10 415 -15 422 -4 6 -12 58 -17 115 -23 247
-25 259 -78 423 -58 182 -158 336 -298 457 -75 64 -191 128 -233 128 -36 -1
-61 -22 -61 -54 0 -35 10 -44 106 -102 89 -55 151 -112 160 -149 11 -46 -8
-51 -83 -22 -80 32 -123 34 -146 9 -37 -41 -23 -63 95 -145 116 -82 124 -120
20 -98 -76 17 -103 12 -121 -21 -20 -36 -3 -68 53 -98 128 -71 258 -196 326
-315 27 -48 118 -310 126 -364 2 -14 6 -44 10 -66 3 -22 9 -148 13 -280 4
-132 11 -247 16 -255 5 -8 13 -112 17 -230 7 -222 15 -302 42 -430 63 -297 66
-306 127 -432 59 -121 78 -151 155 -248 85 -107 187 -189 331 -265 48 -25 96
-55 107 -65 20 -19 39 -117 56 -290 12 -116 20 -161 58 -320 35 -146 103 -352
142 -430 15 -30 31 -66 35 -80 4 -14 25 -52 45 -85 21 -33 49 -80 62 -105 57
-108 124 -198 242 -330 100 -113 148 -160 199 -197 28 -20 59 -44 67 -52 29
-28 186 -125 250 -154 87 -40 193 -73 324 -102 135 -31 358 -35 471 -9 223 51
347 98 485 184 108 66 282 204 345 271 131 142 288 366 356 509 22 47 51 108
64 135 130 276 207 609 234 1013 9 147 8 146 151 219 82 42 127 72 211 136 44
33 77 66 109 107 19 25 37 47 40 50 21 18 104 161 142 245 56 120 71 165 92
270 9 44 19 91 22 105 3 14 10 54 15 90 5 36 15 97 21 135 11 67 19 224 36
700 9 249 28 382 72 508 16 48 30 93 30 101 0 19 75 167 97 191 10 11 34 40
53 65 19 25 39 50 45 56 17 18 148 108 186 128 20 11 44 32 54 49 17 28 17 30
-3 56 -21 28 -46 31 -144 16 -36 -6 -48 -4 -48 5 0 19 72 84 129 116 27 15 57
41 66 57 17 28 16 30 -2 56 -27 36 -53 37 -129 7 -73 -29 -102 -32 -110 -12
-13 35 82 130 189 189 88 49 108 86 67 127 -22 22 -51 24 -89 9z m-2816 -1533
c132 -22 389 -128 511 -210 49 -34 165 -128 203 -166 56 -55 188 -210 230
-270 142 -201 305 -574 352 -803 11 -55 27 -130 36 -166 26 -113 37 -257 37
-501 0 -254 -10 -381 -43 -530 -11 -52 -23 -108 -25 -125 -16 -93 -77 -270
-171 -495 -75 -179 -300 -496 -433 -609 -203 -174 -341 -256 -522 -309 -168
-50 -245 -62 -380 -62 -112 0 -139 4 -260 36 -189 50 -373 143 -521 263 -31
25 -73 58 -92 73 -44 34 -205 230 -262 318 -138 215 -271 510 -325 720 -32
126 -61 282 -65 352 -3 38 -8 83 -12 100 -20 85 -4 597 21 723 4 17 14 66 22
110 18 93 81 308 123 423 42 112 174 358 257 476 122 173 276 330 428 437 124
87 394 199 515 214 25 3 47 7 49 10 7 6 280 -1 327 -9z"></path>
<path d="M4130 3756 c-65 -19 -106 -42 -148 -84 -127 -127 -133 -397 -11 -535
52 -59 124 -94 224 -108 l80 -10 60 -65 61 -65 83 3 84 3 -72 77 -72 77 42 27
c59 37 97 80 128 144 24 50 26 65 26 180 0 114 -2 130 -26 180 -34 73 -99 135
-169 162 -68 26 -222 34 -290 14z m217 -137 c20 -12 43 -41 60 -77 24 -50 28
-68 27 -147 -2 -163 -64 -245 -186 -245 -63 0 -116 35 -147 95 -23 43 -26 62
-26 145 0 145 34 213 122 246 46 17 105 10 150 -17z"></path>
<path d="M2261 3408 c-72 -194 -131 -356 -131 -360 0 -5 40 -8 89 -8 84 0 90
1 96 23 4 12 14 41 22 65 l16 43 150 -3 151 -3 20 -62 20 -63 92 0 92 0 -85
228 c-47 125 -106 286 -133 357 l-47 130 -110 3 -110 3 -132 -353z m339 -100
c0 -4 -45 -8 -100 -8 -55 0 -100 2 -100 4 0 5 75 222 90 261 11 29 13 25 61
-109 27 -77 49 -143 49 -148z"></path>
<path d="M3078 3400 l-3 -362 216 4 215 3 59 30 c75 38 100 83 99 172 -1 72
-33 132 -83 154 -17 8 -31 16 -31 19 0 3 16 17 35 33 66 52 70 180 7 240 -51
49 -100 59 -314 65 l-198 5 -2 -363z m351 216 c15 -14 21 -31 21 -61 0 -62
-22 -77 -112 -79 l-73 -1 -3 84 -3 83 75 -4 c55 -2 80 -8 95 -22z m26 -291
c19 -18 25 -35 25 -67 -1 -75 -34 -98 -144 -98 l-76 0 0 95 0 95 85 0 c78 0
88 -2 110 -25z"></path>
<path d="M2250 2525 c0 -3 59 -165 132 -361 l132 -355 109 3 110 3 108 290
c60 160 120 320 133 358 l26 67 -93 0 -92 0 -94 -266 c-52 -145 -97 -261 -101
-257 -4 4 -47 118 -95 253 -48 135 -90 251 -92 258 -4 8 -32 12 -94 12 -49 0
-89 -2 -89 -5z"></path>
<path d="M3200 2170 l0 -360 255 0 255 0 0 70 0 70 -165 0 -165 0 0 85 0 85
150 0 150 0 0 65 0 64 -147 3 -148 3 -3 73 -3 72 161 0 160 0 0 65 0 65 -250
0 -250 0 0 -360z"></path>
<path d="M3880 2465 l0 -64 123 -3 122 -3 3 -292 2 -293 90 0 90 0 0 295 0
295 120 0 120 0 0 65 0 65 -335 0 -335 0 0 -65z"></path>
</g>
</svg>