 <svg version="1.0" xmlns="http://www.w3.org/2000/svg" width="700.000000pt" height="700.000000pt" viewBox="0 0 700.000000 700.000000" preserveAspectRatio="xMidYMid meet">
<metadata>
Created by potrace 1.12, written by Peter Selinger 2001-2015
</metadata>
<g transform="translate(0.000000,700.000000) scale(0.100000,-0.100000)" fill="#000000" stroke="none">
<path d="M4148 6723 c-16 -2 -28 -9 -28 -14 0 -5 -6 -9 -13 -9 -8 0 -28 -28
-45 -62 l-30 -63 -1 -490 -1 -490 -491 -3 -491 -2 -44 -31 c-24 -16 -44 -36
-44 -44 0 -8 -7 -15 -16 -15 -8 0 -13 -4 -10 -9 3 -4 -1 -17 -9 -27 -12 -16
-14 -98 -15 -498 0 -429 2 -483 17 -518 9 -21 20 -38 25 -38 4 0 8 -6 8 -13 0
-14 52 -57 70 -57 5 0 10 -4 10 -10 0 -7 172 -10 495 -10 l495 0 0 -509 0
-509 33 -56 c17 -31 38 -56 45 -56 6 0 12 -4 12 -9 0 -24 80 -30 522 -35 256
-3 468 -2 470 2 2 4 22 19 46 35 23 15 42 34 42 43 0 8 4 13 9 10 4 -3 14 14
22 37 11 34 14 138 13 545 l-2 502 478 0 c457 0 540 5 540 30 0 4 8 10 18 12
9 3 30 30 45 60 l28 56 -2 481 c-1 428 -3 485 -18 514 -29 55 -45 77 -58 77
-7 0 -13 4 -13 9 0 5 -14 16 -30 25 -26 13 -95 14 -508 9 l-477 -6 -1 496 c-1
390 -4 502 -14 528 -8 18 -34 52 -58 75 l-44 43 -477 -1 c-262 0 -488 -3 -503
-5z m841 -204 c20 -7 42 -27 58 -52 l26 -41 -7 -223 c-4 -123 -4 -351 0 -508
l7 -285 487 0 c268 0 490 -3 494 -7 3 -4 15 -8 26 -10 24 -4 51 -30 67 -65 17
-38 8 -730 -10 -767 -28 -57 -28 -57 -567 -65 -272 -4 -496 -8 -497 -9 -1 -1
-4 -242 -7 -535 -6 -485 -8 -536 -24 -557 -9 -14 -21 -25 -25 -25 -5 0 -15 -7
-23 -15 -13 -13 -66 -15 -354 -15 -353 0 -373 2 -415 44 -19 19 -20 37 -23
551 -1 291 -5 536 -7 543 -3 9 -113 12 -500 12 -514 0 -515 0 -562 43 -22 20
-22 21 -23 395 0 206 -2 378 -5 381 -8 14 35 70 65 86 27 14 93 16 530 15
l500 0 2 232 c1 128 0 361 -1 518 -2 315 -2 319 59 351 32 17 62 19 366 19
218 0 342 -4 363 -11z"></path>
<path d="M57 4053 c-4 -3 -7 -575 -7 -1270 l0 -1263 1030 0 1030 0 0 150 c0
93 4 150 10 150 6 0 10 -4 10 -10 0 -5 7 -10 15 -10 9 0 27 -11 41 -25 14 -14
29 -25 33 -25 4 0 16 -9 26 -20 10 -11 24 -20 31 -20 7 0 14 -3 16 -8 2 -4 28
-23 58 -42 50 -32 126 -85 157 -110 7 -6 16 -10 22 -10 5 0 11 -4 13 -8 2 -5
35 -28 73 -52 39 -24 79 -51 90 -60 25 -21 255 -164 383 -239 23 -14 42 -28
42 -33 0 -4 7 -8 15 -8 8 0 15 -4 15 -9 0 -5 10 -13 23 -17 12 -4 24 -10 27
-14 3 -4 23 -19 45 -33 22 -15 58 -39 80 -53 22 -15 42 -31 43 -36 2 -4 10 -8
17 -8 7 0 27 -11 43 -25 17 -14 33 -25 37 -25 4 0 24 -13 45 -30 21 -16 43
-30 49 -30 6 0 11 -4 11 -10 0 -5 5 -10 11 -10 6 0 25 -11 43 -25 18 -14 38
-25 44 -25 7 0 12 -7 12 -16 0 -8 5 -12 10 -9 6 3 13 -1 16 -9 3 -9 10 -14 14
-11 5 3 28 -10 52 -28 23 -18 60 -43 80 -56 21 -12 38 -27 38 -32 0 -6 5 -7
10 -4 6 3 10 2 10 -4 0 -6 11 -13 25 -17 14 -3 25 -12 25 -20 0 -8 6 -14 14
-14 8 0 21 -6 28 -13 7 -8 31 -26 53 -40 22 -15 56 -38 75 -51 22 -16 49 -25
75 -25 40 -1 67 16 137 81 10 10 20 18 23 18 5 0 47 34 77 62 10 10 22 18 28
18 6 0 10 5 10 10 0 6 7 10 15 10 8 0 15 7 15 16 0 10 6 14 15 10 9 -3 15 0
15 9 0 8 7 15 15 15 7 0 19 8 24 17 6 10 11 15 11 11 0 -4 14 6 32 22 17 16
35 27 39 25 4 -3 9 2 13 10 3 8 11 15 18 15 7 0 22 11 32 25 10 14 25 25 32
25 8 0 14 5 14 10 0 6 7 10 15 10 8 0 15 5 15 10 0 6 8 14 17 17 19 7 58 38
82 66 8 9 19 17 24 17 4 0 20 11 35 25 15 14 30 25 35 25 4 0 20 11 34 24 15
14 30 23 35 20 4 -3 8 2 8 11 0 11 5 15 15 11 9 -3 15 0 15 9 0 8 7 15 15 15
8 0 15 3 15 8 0 4 25 23 55 41 30 19 55 39 55 43 0 4 5 8 10 8 6 0 18 8 28 18
10 9 53 42 95 72 42 30 77 58 77 62 0 4 5 8 11 8 6 0 23 9 37 21 15 11 45 34
67 50 64 49 95 73 116 91 11 9 45 33 75 54 30 20 54 41 54 46 0 4 6 8 14 8 8
0 16 4 18 8 2 5 30 28 63 53 33 24 64 50 68 56 4 7 14 13 22 13 7 0 15 4 17 8
2 5 31 28 66 52 34 24 62 48 62 52 0 4 6 8 13 8 7 0 26 12 43 28 16 15 56 45
87 66 31 22 57 43 57 48 0 4 5 8 10 8 6 0 18 8 28 18 16 15 125 97 170 127 8
6 26 20 40 33 14 12 40 32 59 43 18 11 33 25 33 30 0 5 6 9 13 9 7 0 19 8 27
18 77 89 123 148 131 166 5 12 18 35 28 51 11 17 20 37 20 45 1 8 8 29 17 45
13 24 17 62 18 185 0 85 -2 173 -5 195 -6 37 -43 131 -71 180 -7 11 -17 31
-24 45 -7 14 -27 40 -43 58 -17 18 -42 48 -57 67 -28 37 -56 44 -89 21 -11 -7
-47 -23 -80 -35 -33 -12 -185 -85 -337 -161 -152 -76 -287 -142 -300 -146 -13
-4 -39 -17 -58 -30 -19 -13 -44 -24 -55 -24 -11 0 -31 -9 -45 -20 -14 -11 -30
-20 -36 -20 -6 0 -36 -13 -66 -29 l-56 -30 -5 38 c-5 42 -45 111 -64 111 -7 0
-13 5 -13 11 0 5 -16 17 -35 25 -29 12 -215 14 -1280 14 -685 0 -1245 3 -1245
8 0 8 -73 42 -91 42 -6 0 -23 9 -38 20 -15 10 -39 21 -53 24 -26 4 -69 25 -78
38 -3 4 -18 9 -34 12 -15 3 -42 13 -60 24 -17 10 -45 22 -61 26 -16 4 -41 16
-57 27 -15 11 -28 18 -28 15 0 -7 -71 23 -89 37 -7 6 -20 12 -29 13 -27 4 -92
36 -92 46 0 4 -10 8 -23 8 -12 0 -39 12 -60 26 -21 14 -47 26 -57 27 -19 1
-20 11 -20 289 l0 287 -287 3 c-648 7 -1760 8 -1766 1z m1885 -405 c5 -755 6
-1833 2 -1890 l-6 -68 -869 0 -869 0 0 1083 c0 596 3 1087 7 1090 3 4 395 7
870 7 l863 0 2 -222z m208 -449 c0 -5 11 -9 25 -9 14 0 25 -4 25 -10 0 -5 11
-10 24 -10 13 0 29 -7 36 -15 7 -8 16 -13 20 -10 5 3 15 -2 23 -10 9 -8 22
-15 29 -15 8 0 34 -10 59 -22 24 -12 50 -23 57 -24 8 -1 28 -9 45 -17 18 -9
59 -27 92 -42 33 -15 93 -43 133 -61 41 -19 77 -34 82 -34 4 0 25 -9 47 -19
21 -11 58 -29 83 -41 24 -12 49 -28 55 -36 15 -20 75 -30 75 -12 0 8 19 19 45
27 25 7 45 16 45 20 0 3 10 7 23 8 12 0 60 6 107 12 116 15 1821 15 1945 0 50
-6 113 -18 140 -27 l50 -17 3 -186 2 -186 -25 -11 c-13 -6 -55 -17 -92 -23
-38 -7 -72 -16 -77 -21 -6 -4 -416 -8 -913 -8 l-903 0 0 -78 0 -79 722 -6
c397 -4 862 -7 1033 -7 306 0 313 0 355 23 24 12 48 31 54 42 6 11 19 31 29
44 14 20 17 47 17 172 l0 147 114 56 c62 31 117 56 120 56 4 0 24 11 44 25 20
14 47 25 59 25 12 0 24 4 27 9 3 4 85 48 183 96 98 48 254 125 347 171 93 46
170 84 171 84 9 0 48 -90 50 -115 2 -16 13 -88 25 -160 23 -125 23 -132 7
-195 -10 -36 -17 -75 -17 -87 0 -13 -5 -23 -11 -23 -6 0 -32 -18 -58 -40 -26
-22 -50 -40 -54 -40 -4 0 -15 -8 -25 -17 -10 -10 -31 -27 -46 -38 -16 -11 -43
-32 -61 -47 -18 -16 -35 -28 -39 -28 -3 0 -14 -8 -24 -17 -36 -35 -82 -73 -88
-73 -3 0 -11 -6 -18 -12 -7 -7 -27 -24 -45 -38 -19 -14 -48 -37 -66 -53 -18
-15 -36 -27 -40 -27 -4 0 -18 -11 -31 -25 -13 -14 -28 -25 -34 -25 -5 0 -10
-4 -10 -10 0 -5 -6 -10 -14 -10 -8 0 -28 -16 -45 -35 -17 -19 -33 -35 -36 -35
-12 0 -125 -84 -125 -93 0 -4 -4 -6 -8 -3 -5 3 -16 -3 -24 -13 -9 -11 -43 -38
-77 -62 -34 -24 -61 -47 -61 -51 0 -4 -4 -8 -10 -8 -5 0 -18 -8 -28 -17 -10
-10 -31 -27 -46 -38 -16 -11 -37 -28 -48 -37 -10 -10 -21 -18 -25 -18 -7 0
-108 -77 -171 -130 -13 -11 -26 -20 -28 -20 -5 0 -12 -5 -65 -50 -20 -16 -41
-30 -47 -30 -6 0 -12 -4 -14 -9 -3 -8 -49 -47 -119 -101 -18 -14 -38 -31 -45
-37 -7 -7 -17 -13 -21 -13 -5 0 -22 -13 -38 -30 -16 -16 -34 -30 -39 -30 -6 0
-20 -11 -30 -25 -10 -14 -23 -25 -27 -25 -5 0 -17 -8 -27 -17 -38 -37 -72 -63
-82 -63 -6 0 -10 -4 -10 -9 0 -5 -24 -26 -52 -47 -29 -20 -54 -41 -56 -46 -2
-4 -10 -8 -17 -8 -7 0 -15 -7 -19 -15 -3 -8 -13 -15 -22 -15 -10 0 -14 -3 -11
-6 7 -7 -83 -69 -95 -66 -5 1 -8 -5 -8 -13 0 -8 -6 -15 -14 -15 -8 0 -17 -7
-20 -16 -3 -8 -10 -13 -15 -10 -5 3 -11 -1 -15 -9 -3 -8 -12 -15 -20 -15 -8 0
-17 -9 -21 -19 -3 -11 -19 -22 -35 -26 -16 -4 -32 -14 -35 -23 -6 -18 -76 -72
-94 -72 -6 0 -11 -5 -11 -11 0 -17 -36 -1 -103 46 -34 24 -107 71 -162 106
-112 70 -198 130 -203 141 -2 5 -10 8 -18 8 -8 0 -14 4 -14 9 0 5 -11 12 -25
15 -14 4 -25 11 -25 16 0 6 -6 10 -14 10 -8 0 -16 3 -18 8 -5 10 -97 72 -108
72 -6 0 -10 5 -10 10 0 6 -5 10 -11 10 -7 0 -19 8 -28 19 -9 10 -26 21 -38 25
-13 4 -23 12 -23 17 0 5 -7 9 -15 9 -8 0 -15 5 -15 10 0 6 -6 10 -12 10 -7 0
-28 14 -47 30 -18 17 -38 30 -44 30 -5 0 -17 8 -26 18 -9 10 -23 21 -31 25
-23 11 -52 30 -79 55 -14 12 -31 22 -38 22 -6 0 -13 4 -15 8 -3 8 -55 43 -248
167 -36 23 -80 50 -97 60 -18 11 -33 23 -33 27 0 4 -6 8 -13 8 -7 0 -36 18
-66 40 -29 22 -57 37 -62 34 -5 -3 -12 2 -15 10 -3 9 -10 13 -15 10 -5 -3 -9
2 -9 10 0 10 -9 16 -25 16 -14 0 -25 5 -25 10 0 6 -7 10 -15 10 -8 0 -15 7
-15 16 0 8 -4 13 -9 10 -5 -3 -33 12 -62 34 -30 22 -58 40 -63 40 -5 0 -18 10
-30 23 -12 12 -29 23 -37 25 -7 2 -15 8 -17 13 -2 5 -10 9 -18 9 -8 0 -14 5
-14 10 0 6 -4 10 -9 10 -5 0 -31 15 -57 33 l-49 32 2 575 c2 316 3 578 3 582
0 10 40 -3 40 -13z"></path>
</g>
</svg>