 <svg version="1.0" xmlns="http://www.w3.org/2000/svg" width="700.000000pt" height="700.000000pt" viewBox="0 0 700.000000 700.000000" preserveAspectRatio="xMidYMid meet">
<metadata>
Created by potrace 1.12, written by Peter Selinger 2001-2015
</metadata>
<g transform="translate(0.000000,700.000000) scale(0.100000,-0.100000)" fill="#000000" stroke="none">
<path d="M883 6513 c-90 -4 -92 -4 -119 -38 -15 -19 -31 -32 -36 -29 -4 3 -8
0 -8 -6 0 -23 -178 -219 -437 -481 -111 -113 -203 -212 -203 -219 0 -11 210
-235 237 -253 7 -4 13 -13 13 -20 0 -7 75 -86 165 -176 91 -90 165 -168 165
-173 0 -6 29 -40 64 -77 36 -36 76 -79 90 -95 39 -46 59 -41 126 31 33 36 60
67 60 69 0 13 150 178 165 182 10 2 12 -142 12 -660 0 -365 1 -774 1 -910 l2
-248 1060 0 1060 0 2 723 c1 397 0 806 -2 908 -1 121 1 188 8 193 11 7 257
-248 276 -286 19 -38 48 -34 86 14 19 24 71 81 115 128 233 248 346 369 381
410 21 24 64 67 94 95 104 95 130 123 130 139 0 9 -28 41 -61 73 -34 32 -69
70 -78 84 -9 14 -99 112 -201 218 -102 106 -188 200 -192 209 -3 9 -47 58 -97
107 l-91 90 -1348 1 c-741 0 -1388 -1 -1439 -3z"></path>
<path d="M3731 3698 c-12 -30 -81 -704 -81 -790 0 -37 -4 -69 -9 -72 -4 -3
-11 -58 -14 -123 -3 -65 -10 -156 -17 -203 -22 -170 -70 -670 -70 -737 0 -38
-5 -74 -10 -79 -6 -6 -13 -70 -17 -143 -3 -72 -10 -134 -15 -137 -4 -3 -8 -33
-8 -67 0 -34 -16 -222 -36 -418 -21 -196 -35 -363 -31 -372 6 -15 42 -17 396
-17 430 0 408 -4 396 64 -4 19 10 104 34 215 22 101 37 189 35 196 -3 7 -1 16
5 20 6 3 11 24 11 45 0 21 5 42 10 45 6 4 8 15 5 25 -3 10 -1 21 5 25 5 3 10
33 10 66 0 32 4 67 9 77 19 36 81 315 81 363 0 15 4 30 9 33 4 3 11 35 14 72
2 36 10 71 16 77 6 6 11 23 11 37 0 40 103 524 110 517 3 -3 6 15 7 41 4 84
45 83 45 -2 0 -29 3 -44 10 -40 6 4 8 -2 3 -16 -4 -12 -3 -25 2 -29 9 -5 51
-178 59 -241 2 -14 10 -52 18 -84 8 -33 12 -65 9 -72 -2 -6 0 -15 6 -19 6 -3
11 -25 11 -49 0 -23 3 -46 8 -50 4 -4 7 -11 8 -14 7 -68 18 -123 25 -128 5 -3
7 -8 5 -12 -2 -4 9 -68 24 -142 16 -73 26 -138 23 -142 -2 -5 0 -14 5 -21 6
-7 13 -24 15 -37 2 -14 7 -33 12 -42 4 -10 5 -25 2 -33 -4 -8 -2 -17 3 -20 6
-4 10 -23 10 -44 0 -21 3 -41 7 -45 4 -4 9 -26 10 -49 2 -23 8 -58 15 -77 7
-19 11 -38 10 -42 -1 -3 12 -66 28 -139 16 -73 27 -136 24 -140 -2 -4 0 -10 6
-14 5 -3 10 -44 10 -91 l0 -84 188 0 c104 0 284 -3 400 -7 l212 -6 -1 109 c0
60 -3 113 -7 119 -3 5 -5 27 -3 49 1 21 -2 42 -7 45 -11 7 -25 152 -23 229 1
31 -2 52 -9 52 -6 0 -10 35 -10 95 0 58 -4 95 -10 95 -6 0 -8 10 -4 24 3 12
-4 106 -15 207 -11 101 -23 217 -27 257 -4 40 -11 75 -16 78 -5 3 -6 14 -3 24
3 11 -1 87 -10 170 -9 83 -14 157 -12 165 3 7 3 16 0 19 -3 3 -7 36 -8 73 -4
101 -16 217 -24 223 -3 3 -8 21 -9 40 -2 19 -7 62 -11 95 -5 33 -6 75 -4 93 3
18 1 38 -5 45 -6 6 -11 64 -12 127 -3 144 -21 350 -31 350 -4 0 -7 8 -7 18 1
39 -34 349 -43 370 l-9 22 -870 0 -870 0 -9 -22z"></path>
<path d="M1706 2306 c-58 -58 -75 -124 -59 -234 6 -41 9 -80 7 -86 -4 -10 -45
-38 -248 -171 -34 -22 -77 -52 -96 -66 -19 -14 -42 -29 -50 -33 -8 -4 -40 -22
-70 -41 -30 -19 -66 -40 -80 -47 -14 -7 -27 -15 -30 -18 -13 -14 -61 -40 -74
-40 -8 0 -16 -3 -18 -7 -2 -5 -28 -21 -58 -37 -30 -17 -72 -42 -94 -58 -21
-15 -42 -25 -47 -22 -5 3 -9 0 -9 -5 0 -6 -4 -11 -10 -11 -5 0 -21 -10 -36
-22 -14 -13 -35 -25 -46 -28 -34 -9 -62 -53 -49 -77 10 -20 19 -20 328 -17
175 2 636 7 1026 10 673 6 707 7 707 24 0 20 -44 60 -66 60 -8 0 -14 5 -14 10
0 6 -5 10 -10 10 -6 0 -32 15 -58 33 -26 18 -54 37 -62 41 -21 10 -42 23 -146
89 -50 31 -96 57 -101 57 -5 0 -17 8 -26 18 -9 9 -33 26 -54 37 -21 10 -45 25
-55 33 -9 7 -46 32 -82 55 -111 71 -241 161 -244 169 -2 4 -9 8 -16 8 -25 0
-56 46 -56 83 0 20 -4 39 -10 42 -12 8 -13 109 -1 133 5 9 14 29 19 44 6 14
26 34 45 43 32 15 36 15 68 -3 23 -13 43 -37 61 -75 27 -56 53 -73 64 -42 4 8
3 23 -1 33 -5 9 -9 23 -11 31 -4 22 -58 84 -90 102 -16 10 -46 18 -67 18 -31
1 -45 -6 -81 -43z m43 -417 c31 -23 68 -53 83 -67 30 -27 85 -63 133 -86 17
-8 43 -25 60 -38 16 -12 57 -41 91 -63 35 -22 95 -62 135 -90 40 -27 80 -54
88 -60 9 -5 18 -13 21 -16 3 -3 36 -25 73 -49 37 -23 66 -47 64 -54 -5 -15
-368 -19 -1065 -10 -628 7 -587 1 -476 72 28 18 61 40 72 50 55 46 63 52 72
52 6 0 20 11 32 26 23 26 67 56 267 182 64 41 132 89 151 108 20 19 41 34 46
34 6 0 24 11 40 25 16 14 35 25 43 25 8 0 39 -19 70 -41z"></path>
</g>
</svg>