 <svg version="1.0" xmlns="http://www.w3.org/2000/svg" width="700.000000pt" height="700.000000pt" viewBox="0 0 700.000000 700.000000" preserveAspectRatio="xMidYMid meet">
<metadata>
Created by potrace 1.12, written by Peter Selinger 2001-2015
</metadata>
<g transform="translate(0.000000,700.000000) scale(0.100000,-0.100000)" fill="#000000" stroke="none">
<path d="M2045 6940 c-3 -5 -15 -10 -26 -10 -20 0 -28 -3 -89 -35 -82 -42
-110 -59 -110 -67 0 -4 -11 -13 -24 -20 -32 -17 -128 -138 -165 -208 -44 -84
-71 -206 -71 -325 0 -112 20 -200 69 -306 28 -61 119 -185 147 -202 8 -4 28
-21 46 -38 25 -22 138 -87 186 -105 1 -1 0 -8 -3 -17 -4 -8 -23 -18 -43 -22
-33 -5 -76 -17 -122 -33 -8 -3 -19 -6 -25 -8 -57 -14 -373 -157 -385 -173 -3
-4 -32 -22 -65 -40 -159 -89 -360 -245 -510 -397 -99 -100 -216 -234 -224
-256 -2 -6 -10 -18 -18 -27 -103 -116 -276 -426 -361 -646 -59 -154 -137 -490
-146 -632 -2 -34 -7 -66 -10 -72 -4 -6 -5 -115 -3 -243 4 -178 10 -263 26
-358 23 -132 66 -305 101 -405 12 -33 23 -70 26 -81 4 -23 84 -205 137 -314
69 -141 249 -401 337 -485 16 -16 30 -34 30 -40 0 -11 230 -234 285 -277 16
-13 37 -30 46 -39 9 -9 38 -31 65 -49 27 -19 62 -44 77 -56 59 -49 269 -166
397 -222 409 -179 716 -240 1153 -229 298 7 507 44 772 136 476 166 826 411
1178 823 80 94 177 229 177 247 0 6 5 11 10 11 6 0 10 4 10 10 0 5 15 33 33
62 66 105 146 276 187 398 23 68 43 129 44 135 1 5 5 15 9 21 4 7 9 28 12 48
2 20 7 42 11 48 4 7 9 22 10 33 5 46 26 106 35 103 12 -4 101 -155 182 -308
28 -52 60 -111 72 -130 13 -20 37 -65 55 -100 31 -63 64 -120 210 -370 37 -63
88 -154 113 -202 25 -47 56 -103 70 -125 25 -41 41 -68 132 -233 32 -58 79
-142 105 -188 l47 -82 24 18 c26 20 68 44 112 64 15 7 27 18 27 24 0 7 6 14
13 17 9 3 8 11 -4 33 -64 119 -99 181 -145 261 -30 50 -54 93 -54 96 0 2 -18
37 -41 78 -82 147 -103 185 -134 244 -54 100 -130 236 -179 318 -25 43 -46 81
-46 84 0 2 -38 68 -84 146 -46 78 -106 185 -133 237 -28 52 -63 118 -78 145
-15 28 -44 82 -65 120 -20 39 -47 88 -60 110 -60 107 -129 229 -177 312 -29
51 -53 97 -53 102 0 6 -4 11 -10 11 -5 0 -10 4 -10 10 0 5 -17 38 -39 73 -34
55 -80 139 -130 235 -8 15 -17 29 -20 32 -4 3 -12 17 -18 33 -7 15 -17 27 -23
27 -12 0 -40 24 -40 34 0 15 -35 45 -40 35 -4 -5 -63 -19 -131 -30 -68 -11
-218 -35 -334 -54 -115 -19 -295 -48 -400 -64 -104 -17 -273 -44 -375 -61
-102 -16 -203 -31 -225 -34 -22 -2 -47 -6 -55 -9 -30 -10 -220 -37 -264 -37
-25 0 -48 -5 -51 -10 -3 -5 -30 -10 -59 -10 -28 0 -57 -5 -63 -11 -18 -18 -43
-3 -43 25 0 14 -4 28 -10 31 -5 3 -10 19 -10 35 0 17 -11 84 -25 150 -14 66
-28 142 -31 169 -2 28 -29 166 -60 308 -97 457 -96 453 -85 467 6 7 36 16 67
19 30 3 61 10 67 15 7 5 27 10 46 10 18 0 39 6 44 11 6 6 27 11 47 11 20 0 40
3 44 7 4 4 13 8 19 8 23 1 102 17 112 23 5 3 22 7 39 9 16 2 88 17 160 33 326
74 703 161 719 166 23 7 22 54 -3 99 -11 20 -20 45 -20 56 0 11 -7 42 -16 70
-15 46 -35 62 -49 39 -3 -5 -18 -10 -31 -10 -27 0 -1233 -266 -1294 -285 -14
-4 -19 11 -33 87 -9 51 -19 109 -22 128 -12 78 -56 286 -65 302 -6 10 -10 30
-10 45 0 16 -7 60 -16 99 -10 39 -15 78 -12 86 3 7 30 26 61 41 111 56 213
163 272 286 54 111 75 199 75 319 0 166 -35 284 -122 403 -44 62 -106 129
-117 129 -6 0 -14 6 -18 13 -11 17 -61 50 -108 71 -22 9 -48 21 -57 26 -10 6
-27 10 -37 10 -11 0 -23 5 -26 10 -4 6 -63 10 -145 10 -82 0 -141 -4 -145 -10z
m228 -2020 c47 -217 99 -474 117 -570 37 -200 78 -397 150 -720 59 -262 70
-318 68 -328 -3 -12 13 -87 27 -128 17 -50 28 -51 198 -25 73 12 215 34 317
50 355 56 646 102 835 131 105 17 305 48 445 70 357 57 353 57 366 28 6 -12
33 -66 60 -118 l49 -95 -7 -189 c-6 -147 -15 -222 -38 -340 -17 -83 -33 -158
-37 -166 -3 -8 -5 -18 -5 -22 4 -17 -94 -251 -150 -362 -70 -137 -108 -197
-190 -309 -32 -43 -58 -80 -58 -84 0 -20 -243 -272 -328 -340 -26 -21 -53 -46
-60 -55 -7 -10 -17 -18 -23 -18 -5 0 -40 -22 -78 -50 -38 -27 -72 -50 -77 -50
-4 0 -15 -6 -23 -14 -44 -38 -363 -186 -402 -186 -8 0 -20 -5 -27 -12 -7 -7
-12 -9 -12 -5 0 3 -21 -1 -47 -9 -185 -57 -382 -84 -605 -84 -248 0 -421 26
-648 97 -47 15 -87 27 -90 28 -3 1 -13 5 -22 8 -24 9 -47 16 -53 17 -13 0
-250 123 -253 131 -2 5 -8 9 -13 9 -5 0 -49 26 -97 57 -48 32 -91 60 -95 62
-5 1 -18 13 -31 25 -13 11 -56 50 -96 86 -256 226 -457 509 -615 865 -37 84
-45 105 -45 122 0 11 -3 23 -7 27 -4 3 -8 12 -9 19 -1 7 -16 66 -33 132 -17
66 -32 143 -35 170 -2 28 -9 96 -16 152 -19 163 -8 561 19 688 33 151 135 445
201 580 165 336 416 635 689 822 42 29 82 57 89 63 23 20 205 122 261 147 31
14 76 34 101 45 24 11 49 21 55 23 5 1 17 5 25 8 8 4 47 15 85 26 64 17 71 17
77 2 4 -9 45 -194 91 -411z"></path>
</g>
</svg>