 <svg version="1.0" xmlns="http://www.w3.org/2000/svg" width="700.000000pt" height="700.000000pt" viewBox="0 0 700.000000 700.000000" preserveAspectRatio="xMidYMid meet">
<metadata>
Created by potrace 1.12, written by Peter Selinger 2001-2015
</metadata>
<g transform="translate(0.000000,700.000000) scale(0.100000,-0.100000)" fill="#000000" stroke="none">
<path d="M3370 5844 c-41 -20 -102 -47 -135 -61 -33 -14 -98 -43 -143 -64 -46
-22 -85 -39 -87 -39 -2 0 -54 -24 -117 -54 -218 -103 -395 -185 -598 -276
-317 -143 -544 -247 -668 -306 -63 -30 -115 -54 -117 -54 -4 0 -214 -95 -325
-147 -41 -20 -104 -49 -140 -65 -36 -17 -94 -44 -130 -60 -36 -17 -90 -41
-120 -55 -30 -14 -93 -43 -138 -64 -46 -22 -85 -39 -87 -39 -1 0 -49 -22 -106
-49 -57 -26 -131 -60 -164 -75 -197 -89 -195 -88 -195 -113 0 -18 9 -28 37
-40 21 -8 76 -33 123 -55 47 -22 132 -62 190 -88 58 -26 149 -68 203 -94 54
-25 99 -46 102 -46 2 0 45 -20 97 -44 51 -24 165 -76 253 -116 88 -40 207 -94
265 -121 l105 -48 2 -897 c3 -887 3 -897 24 -930 176 -285 1132 -516 2024
-490 316 10 651 38 830 71 107 20 335 67 360 75 205 62 309 100 410 150 130
64 202 118 259 194 l36 49 0 892 0 892 128 58 c70 32 208 95 307 140 186 86
274 126 360 165 28 12 92 42 143 66 51 24 95 44 98 44 2 0 4 -198 4 -440 l0
-440 -30 -6 c-16 -4 -34 -12 -40 -19 -7 -8 -9 -130 -8 -355 l3 -343 31 -17
c17 -10 45 -21 63 -25 39 -8 128 12 135 31 3 8 12 14 21 14 13 0 15 43 15 354
l0 354 -50 7 -50 7 2 461 3 461 25 13 c14 7 69 33 123 58 127 59 127 70 7 125
-41 18 -126 58 -188 87 -62 29 -115 53 -117 53 -4 0 -91 40 -250 115 -55 26
-138 64 -185 85 -47 21 -123 56 -170 78 -47 22 -137 63 -200 92 -149 67 -201
91 -280 128 -275 128 -505 233 -615 282 -71 32 -170 76 -220 98 -49 22 -207
95 -350 162 -143 67 -294 137 -335 155 -41 18 -111 49 -155 70 -80 37 -192 85
-197 85 -2 0 -37 -16 -78 -36z m156 -165 c38 -17 97 -44 132 -60 35 -16 65
-29 67 -29 4 0 428 -195 620 -285 55 -26 125 -58 155 -72 75 -35 418 -191 455
-208 17 -7 88 -41 159 -74 70 -34 130 -61 132 -61 1 0 47 -21 101 -46 137 -65
353 -164 357 -164 2 0 46 -20 97 -44 52 -24 148 -69 214 -99 66 -30 156 -71
200 -92 44 -20 116 -53 160 -73 44 -19 84 -39 89 -44 5 -4 -22 -22 -60 -39
-38 -17 -103 -47 -144 -66 -41 -19 -120 -55 -175 -80 -109 -49 -159 -72 -278
-127 -42 -20 -79 -36 -81 -36 -2 0 -59 -26 -127 -58 -68 -32 -140 -66 -159
-75 -19 -8 -75 -34 -125 -57 -110 -51 -319 -147 -360 -165 -150 -66 -418 -189
-624 -286 -68 -33 -125 -59 -127 -59 -1 0 -40 -17 -86 -38 -46 -22 -121 -56
-168 -76 -47 -21 -107 -48 -135 -61 -27 -13 -90 -42 -140 -65 -49 -23 -118
-55 -151 -71 -34 -16 -64 -29 -68 -29 -6 0 -58 23 -216 97 -47 22 -105 49
-130 61 -25 11 -135 61 -245 110 -110 50 -238 108 -285 130 -215 101 -364 170
-470 217 -152 69 -798 364 -882 404 -48 23 -89 41 -91 41 -3 0 -56 24 -118 54
-63 29 -154 72 -204 94 -49 22 -124 56 -165 75 -41 19 -106 49 -145 67 l-70
31 37 20 c20 10 238 111 485 225 246 113 486 224 533 246 47 22 105 48 130 58
25 10 82 37 127 59 46 23 85 41 87 41 2 0 48 21 102 46 120 56 154 71 364 167
91 41 210 96 265 122 55 26 127 60 160 75 33 15 94 43 135 63 41 19 167 76
280 127 113 50 228 102 255 115 28 13 53 24 56 24 3 1 37 -13 75 -30z m-1825
-2113 c41 -18 115 -53 164 -76 50 -23 173 -80 275 -125 157 -70 319 -144 788
-361 41 -19 75 -34 77 -34 2 0 39 -16 82 -36 43 -20 141 -65 218 -101 l140
-64 135 65 c74 35 203 94 285 131 83 36 170 76 195 87 112 51 302 139 370 171
93 43 251 115 440 200 80 36 194 88 253 116 59 28 110 51 113 51 2 0 4 -386 4
-857 l0 -858 -33 -26 c-202 -162 -658 -290 -1207 -339 -353 -32 -783 -36
-1005 -10 -44 5 -138 14 -210 21 -115 10 -314 38 -385 54 -14 3 -34 7 -45 9
-109 21 -338 86 -410 116 -124 51 -221 106 -274 156 l-61 56 0 844 c0 476 4
844 9 844 5 0 42 -15 82 -34z"></path>
</g>
</svg>