 <svg version="1.0" xmlns="http://www.w3.org/2000/svg" width="700.000000pt" height="700.000000pt" viewBox="0 0 700.000000 700.000000" preserveAspectRatio="xMidYMid meet">
<metadata>
Created by potrace 1.12, written by Peter Selinger 2001-2015
</metadata>
<g transform="translate(0.000000,700.000000) scale(0.100000,-0.100000)" fill="#000000" stroke="none">
<path d="M2970 5440 c0 -20 -5 -30 -15 -30 -12 0 -15 -20 -15 -120 l0 -120
-299 0 -300 0 -3 38 -3 37 -242 3 -243 2 0 -35 0 -35 -370 0 -370 0 0 -1703 0
-1702 2375 -2 2375 -1 -2 1702 -3 1701 -367 3 -368 2 0 35 0 35 -245 0 -245 0
0 -33 0 -34 -157 -6 c-87 -4 -224 -7 -305 -7 l-148 0 0 120 c0 73 -4 120 -10
120 -5 0 -10 14 -10 30 l0 30 -515 0 -515 0 0 -30z m938 -182 l-3 -73 -424 0
-423 0 0 68 c1 37 1 69 1 72 1 3 192 5 426 5 l426 0 -3 -72z m1797 -1783 l0
-1560 -2237 -3 -2238 -2 0 1565 0 1565 2238 -2 2237 -3 0 -1560z"></path>
<path d="M3415 4733 c-59 -9 -193 -80 -249 -133 -145 -137 -195 -381 -113
-560 19 -42 71 -115 107 -151 57 -57 200 -129 255 -129 14 0 25 -4 25 -10 0
-6 -98 -10 -275 -10 -292 0 -311 -3 -342 -49 -15 -24 -17 -76 -15 -608 1 -530
3 -585 18 -609 10 -14 28 -30 41 -35 14 -5 289 -9 624 -9 655 0 644 -1 668 57
8 21 11 185 9 610 l-3 583 -28 27 -27 28 -270 3 c-256 3 -327 11 -225 27 101
15 253 123 311 222 93 156 87 376 -13 528 -107 161 -301 246 -498 218z m176
-147 c114 -35 191 -95 235 -184 24 -46 29 -73 32 -144 4 -81 2 -92 -28 -157
-38 -82 -107 -154 -185 -191 -42 -21 -65 -25 -140 -25 -79 0 -97 3 -149 29
-110 54 -182 149 -206 273 -26 133 30 264 148 345 87 60 202 81 293 54z m-185
-1404 l2 -462 25 -33 c61 -78 82 -98 97 -92 8 4 35 31 59 62 l44 55 1 465 1
465 185 -2 c167 -1 187 -3 204 -20 18 -17 19 -43 20 -530 l1 -512 -23 -19
c-22 -17 -50 -18 -541 -19 -498 0 -519 0 -542 19 l-24 19 0 515 c0 555 -1 541
53 550 15 3 119 4 232 3 l205 -1 1 -463z"></path>
</g>
</svg>