 <svg version="1.0" xmlns="http://www.w3.org/2000/svg" width="700.000000pt" height="700.000000pt" viewBox="0 0 700.000000 700.000000" preserveAspectRatio="xMidYMid meet">
<metadata>
Created by potrace 1.12, written by Peter Selinger 2001-2015
</metadata>
<g transform="translate(0.000000,700.000000) scale(0.100000,-0.100000)" fill="#000000" stroke="none">
<path d="M3115 6833 c-137 -10 -353 -45 -495 -79 -157 -37 -446 -132 -570
-186 -14 -6 -31 -12 -38 -14 -19 -3 -227 -110 -297 -152 -77 -46 -258 -164
-265 -172 -3 -3 -36 -28 -75 -55 -74 -52 -146 -107 -181 -140 -12 -11 -62 -56
-111 -100 -48 -44 -121 -117 -162 -162 -41 -44 -84 -93 -97 -107 -13 -14 -24
-28 -24 -31 0 -4 -31 -44 -68 -89 -38 -46 -90 -116 -117 -157 -26 -41 -56 -87
-67 -102 -77 -112 -215 -380 -289 -563 -58 -144 -174 -548 -177 -614 0 -8 -3
-30 -6 -49 -38 -244 -41 -281 -40 -591 0 -274 3 -331 22 -439 11 -69 19 -128
16 -132 -2 -4 0 -10 6 -14 5 -3 9 -20 8 -38 -2 -76 103 -433 186 -633 75 -181
106 -246 166 -349 29 -49 61 -106 72 -125 11 -19 40 -63 64 -98 24 -35 44 -65
44 -68 0 -8 139 -191 156 -204 7 -7 14 -18 14 -24 0 -13 291 -312 386 -398 69
-62 279 -217 372 -275 43 -26 83 -53 90 -60 13 -12 27 -17 45 -14 4 0 7 -4 7
-9 0 -6 30 -24 67 -41 37 -17 70 -35 74 -40 3 -6 8 -9 10 -8 2 2 51 -20 109
-48 315 -155 640 -251 1030 -305 128 -18 671 -18 800 0 276 38 548 106 781
197 173 68 528 248 577 293 7 7 17 10 22 7 4 -3 10 2 14 10 3 8 15 15 26 15
11 0 20 5 20 10 0 6 6 10 14 10 8 0 16 4 18 8 2 5 50 40 108 79 58 40 116 82
130 95 13 13 42 38 65 56 74 62 315 295 328 317 6 13 48 64 92 115 44 51 88
106 99 124 10 17 44 67 76 111 31 44 66 96 76 115 10 19 21 37 25 40 31 29
260 490 242 490 -3 0 0 6 6 14 7 8 14 22 16 32 3 11 30 92 60 182 30 90 56
175 57 190 1 15 4 31 7 37 2 5 6 18 7 30 1 11 12 65 23 120 40 197 53 319 58
560 6 266 -3 404 -42 632 -15 81 -28 166 -31 187 -3 22 -8 44 -11 50 -4 6 -8
22 -10 38 -1 15 -28 100 -58 190 -31 90 -57 170 -59 178 -17 63 -193 422 -268
547 -77 127 -172 262 -271 383 -146 179 -420 450 -456 450 -6 0 -11 4 -11 8 0
5 -27 28 -60 52 -33 24 -60 47 -60 52 0 4 -7 8 -15 8 -8 0 -15 5 -15 10 0 6
-7 10 -15 10 -8 0 -15 5 -15 10 0 6 -4 10 -10 10 -9 0 -35 19 -65 48 -8 6 -18
12 -24 12 -6 0 -11 4 -11 9 0 5 -10 13 -22 17 -13 4 -25 10 -28 14 -3 4 -27
20 -55 35 -27 16 -52 32 -55 36 -5 7 -316 170 -325 170 -7 0 -32 8 -125 45
-297 116 -627 195 -930 223 -103 10 -463 13 -565 4z m500 -633 c147 -14 325
-45 462 -80 119 -32 281 -85 323 -107 14 -7 31 -13 38 -13 6 0 12 -5 12 -12 0
-6 3 -9 6 -5 3 3 23 -3 42 -14 20 -10 42 -19 49 -19 6 0 13 -4 15 -8 2 -4 35
-24 73 -44 39 -20 87 -45 108 -56 57 -31 256 -155 275 -172 9 -9 46 -38 82
-65 86 -65 132 -106 275 -250 122 -121 254 -272 278 -316 7 -13 34 -56 59 -94
25 -39 60 -95 77 -125 48 -84 201 -392 206 -415 2 -11 22 -74 45 -139 45 -132
98 -336 105 -406 2 -25 5 -47 6 -50 1 -3 2 -18 4 -35 1 -16 8 -93 15 -170 13
-148 9 -430 -9 -540 -6 -33 -13 -87 -16 -120 -8 -94 -22 -160 -64 -300 -84
-283 -184 -521 -296 -699 -25 -40 -45 -78 -45 -84 0 -5 -3 -12 -7 -14 -11 -4
-93 -125 -93 -135 0 -5 -9 -15 -20 -23 -11 -8 -20 -18 -20 -22 0 -8 -7 -17
-84 -107 -58 -67 -269 -272 -355 -344 -41 -34 -82 -70 -92 -80 -11 -9 -23 -17
-28 -17 -5 0 -11 -4 -13 -8 -4 -12 -125 -92 -138 -92 -6 0 -13 -6 -16 -13 -3
-8 -10 -14 -17 -14 -7 0 -43 -19 -80 -42 -242 -149 -568 -273 -867 -330 -210
-40 -282 -46 -530 -46 -398 1 -660 50 -1020 190 -174 68 -442 214 -595 323
-233 167 -491 423 -666 662 -52 71 -185 299 -242 415 -112 227 -237 634 -251
820 -3 39 -10 115 -15 170 -6 55 -10 159 -10 230 0 123 3 173 29 424 11 107
59 309 104 439 14 39 22 72 19 72 -3 0 0 7 7 15 7 8 10 15 7 15 -11 0 136 322
178 390 12 19 37 62 55 95 18 33 57 94 86 137 30 42 54 81 54 86 0 6 3 12 8
14 4 2 32 35 64 73 80 100 329 353 418 425 82 66 292 208 380 257 74 41 282
146 295 149 6 1 33 12 60 25 28 12 53 22 58 21 4 -1 7 3 7 9 0 6 6 9 14 6 8
-3 16 -2 18 3 2 4 12 10 23 12 11 1 22 6 25 9 9 12 260 78 369 98 95 18 224
35 321 45 83 7 334 5 435 -4z"></path>
<path d="M3940 5637 c-69 -23 -162 -81 -215 -135 -61 -60 -138 -169 -129 -183
3 -5 0 -9 -7 -9 -7 0 -10 -3 -6 -6 3 -4 -1 -20 -10 -37 -29 -57 -64 -172 -69
-227 -3 -30 -9 -79 -14 -109 -14 -77 -12 -223 4 -311 16 -87 85 -284 120 -344
43 -73 103 -141 165 -186 l60 -44 0 -1390 c-1 -765 0 -1439 0 -1499 l1 -107
193 2 192 3 5 87 c3 48 5 718 4 1490 l-1 1404 59 39 c58 39 168 150 168 170 0
3 11 23 25 45 33 52 72 163 101 285 20 83 24 125 23 243 0 78 -5 144 -10 147
-4 3 -6 12 -3 19 7 18 -21 137 -52 219 -14 37 -27 73 -28 80 -10 59 -119 203
-197 260 -35 26 -70 52 -78 58 -48 41 -224 62 -301 36z"></path>
<path d="M2082 4789 l-3 -631 26 -44 c14 -24 32 -44 40 -44 8 0 15 -4 15 -8 0
-20 57 -32 145 -32 l95 0 0 -1499 0 -1498 200 1 200 1 0 1498 0 1497 106 0
c127 0 170 18 211 88 l26 44 -1 571 c0 315 3 589 8 610 4 21 4 37 -1 37 -5 0
-8 3 -6 8 3 11 -6 12 -103 12 l-90 0 0 -497 1 -498 -47 0 -46 0 -4 420 c-3
279 0 443 7 489 15 90 8 96 -114 96 l-89 0 2 -157 c2 -87 3 -319 2 -515 l-2
-357 -46 2 -45 2 -3 400 c-2 220 0 445 5 500 11 124 10 125 -111 125 l-87 0
-1 -502 -1 -503 -46 -2 -46 -2 2 500 c1 415 -1 503 -12 510 -8 5 -52 9 -99 9
l-85 0 -3 -631z"></path>
</g>
</svg>