 <svg version="1.0" xmlns="http://www.w3.org/2000/svg" width="700.000000pt" height="700.000000pt" viewBox="0 0 700.000000 700.000000" preserveAspectRatio="xMidYMid meet">
<metadata>
Created by potrace 1.12, written by Peter Selinger 2001-2015
</metadata>
<g transform="translate(0.000000,700.000000) scale(0.100000,-0.100000)" fill="#000000" stroke="none">
<path d="M5390 5460 c0 -275 -2 -500 -5 -500 -3 0 -13 4 -23 9 -9 5 -35 17
-57 26 -22 10 -48 22 -57 26 -52 26 -586 261 -727 321 -92 39 -200 86 -241
105 -90 41 -232 108 -279 131 -19 9 -36 16 -38 14 -2 -1 -23 9 -48 23 -24 15
-48 27 -52 27 -9 1 -47 17 -161 70 -46 21 -85 38 -87 38 -1 0 -42 18 -89 40
-47 22 -92 40 -100 40 -13 0 -62 -20 -186 -76 -107 -49 -125 -57 -160 -75 -19
-10 -38 -18 -43 -18 -4 0 -21 -8 -37 -16 -17 -9 -30 -13 -30 -9 0 3 -17 -5
-37 -18 -21 -12 -40 -22 -43 -21 -3 0 -21 -7 -40 -17 -19 -9 -96 -43 -170 -75
-74 -31 -152 -66 -172 -77 -21 -10 -40 -19 -43 -18 -3 0 -19 -7 -35 -15 -16
-8 -32 -15 -35 -15 -3 0 -19 -7 -35 -15 -16 -8 -32 -15 -36 -14 -3 1 -21 -6
-40 -15 -19 -9 -50 -23 -69 -31 -19 -8 -50 -21 -68 -29 -17 -7 -81 -35 -142
-61 -203 -88 -470 -205 -500 -220 -73 -34 -520 -234 -735 -328 -63 -27 -125
-56 -137 -64 -12 -8 -23 -14 -25 -13 -2 0 -36 -13 -76 -31 -60 -27 -72 -36
-70 -53 3 -19 11 -21 98 -24 102 -3 90 -6 280 81 82 37 206 94 245 112 100 47
187 85 235 105 62 25 108 46 265 120 61 29 169 78 240 110 72 32 168 76 215
98 154 73 225 105 230 106 3 1 46 21 95 46 50 25 92 45 95 45 3 1 66 31 140
67 167 81 272 130 285 132 6 1 25 10 42 19 18 10 36 18 40 18 5 0 26 11 48 23
22 13 45 24 50 25 6 0 24 7 40 15 17 9 66 32 110 52 44 20 102 47 128 60 27
13 57 24 67 24 16 0 77 -23 145 -55 64 -30 212 -98 255 -116 65 -29 130 -58
169 -77 19 -10 37 -17 40 -18 8 -1 91 -40 226 -104 61 -29 115 -54 121 -55 6
-2 29 -15 52 -29 23 -14 44 -26 47 -26 2 0 48 -21 102 -46 54 -25 130 -61 170
-80 40 -19 75 -34 77 -34 3 0 54 -23 113 -51 60 -28 146 -68 193 -89 47 -21
121 -55 165 -75 163 -76 214 -99 375 -170 91 -40 179 -80 195 -89 17 -9 36
-16 43 -16 6 0 12 -4 12 -10 0 -5 5 -10 11 -10 6 0 66 -25 134 -55 l123 -56
125 3 125 3 -152 69 -153 68 -6 503 c-4 276 -4 577 0 669 l6 166 -366 0 -367
0 0 -500z m558 -202 c1 -313 -2 -548 -7 -548 -8 0 -122 50 -211 93 -25 12 -47
22 -50 23 -3 0 -42 18 -87 39 l-83 38 0 454 0 453 218 -2 217 -3 3 -547z"></path>
<path d="M3370 5676 c-14 -8 -28 -12 -32 -10 -5 3 -8 -2 -8 -10 0 -14 -18 -21
-42 -17 -5 0 -8 -3 -8 -8 0 -7 -48 -32 -70 -37 -5 -1 -48 -21 -205 -94 -135
-63 -409 -182 -425 -185 -10 -2 -26 -8 -36 -14 -11 -5 -111 -50 -224 -99 -113
-50 -239 -106 -280 -125 -41 -19 -109 -49 -150 -67 -41 -18 -118 -53 -170 -77
-52 -25 -133 -61 -180 -80 -47 -19 -96 -41 -110 -49 -31 -16 -200 -94 -205
-94 -2 0 -48 -21 -102 -46 -54 -26 -136 -63 -183 -84 -47 -21 -124 -56 -173
-79 -48 -22 -91 -41 -95 -41 -4 0 -8 -765 -8 -1700 l-1 -1700 2747 0 2747 0
-1 1705 c-1 938 -4 1705 -7 1705 -6 0 -385 170 -539 242 -36 17 -119 54 -185
83 -66 29 -145 64 -175 78 -30 14 -95 43 -145 65 -49 22 -119 53 -155 70 -140
65 -607 272 -625 276 -12 4 -73 30 -132 57 -24 10 -45 19 -47 19 -5 0 -647
290 -700 316 -35 17 -44 17 -76 0z m200 -202 c69 -30 158 -71 198 -90 41 -19
76 -34 79 -34 3 0 19 -10 36 -22 18 -13 33 -21 35 -20 1 2 44 -17 95 -41 51
-25 119 -57 152 -72 33 -15 85 -38 115 -52 30 -14 84 -39 120 -55 36 -16 92
-42 125 -58 33 -15 113 -51 177 -79 64 -27 125 -55 135 -60 10 -6 41 -20 68
-32 28 -12 156 -69 285 -127 129 -57 296 -131 370 -164 74 -33 168 -75 208
-93 l72 -34 -2 -1598 -3 -1598 -1434 -3 c-996 -1 -1438 1 -1445 8 -8 8 -10
252 -9 780 l2 770 -534 2 -535 3 0 -782 0 -783 -480 0 -480 0 0 1561 0 1560
98 45 c53 25 131 61 172 81 142 66 175 82 245 113 70 32 98 45 250 115 44 20
202 92 350 160 149 68 311 144 360 168 50 24 122 58 160 75 39 17 121 56 183
86 62 31 116 56 120 56 4 0 24 11 43 25 20 13 39 21 43 18 3 -4 6 -1 6 6 0 7
4 10 8 7 5 -3 25 6 44 19 20 13 38 21 42 18 3 -4 6 -1 6 5 0 7 3 11 8 10 6 -2
129 54 297 136 28 14 59 25 70 25 11 1 76 -24 145 -55z m-672 -3202 c2 -262 0
-631 -4 -820 l-6 -342 -473 0 -473 0 -7 253 c-4 138 -5 507 -3 819 l3 568 465
2 c256 2 472 2 480 0 13 -3 15 -66 18 -480z"></path>
<path d="M3595 2686 c0 -431 4 -788 8 -793 5 -4 409 -10 898 -11 l889 -4 0
796 0 796 -897 0 -898 0 0 -784z m885 334 l0 -300 -372 2 -373 3 -3 298 -2
297 375 0 375 0 0 -300z m750 0 l0 -300 -350 0 -350 0 0 284 c0 156 -3 291 -6
300 -6 14 29 16 350 16 l356 0 0 -300z m-754 -665 l1 -305 -375 0 -375 0 7 61
c3 34 6 172 6 305 l0 244 368 0 367 0 1 -305z m754 0 l0 -305 -350 0 -350 0 0
305 0 305 350 0 350 0 0 -305z"></path>
<path d="M2589 1997 c-27 -18 -34 -30 -37 -64 -2 -23 2 -52 9 -65 7 -13 12
-27 11 -31 -1 -5 2 -6 7 -3 5 4 16 -1 24 -9 33 -33 124 -6 146 43 21 44 13 82
-23 118 -41 41 -87 45 -137 11z"></path>
</g>
</svg>