 <svg version="1.0" xmlns="http://www.w3.org/2000/svg" width="700.000000pt" height="700.000000pt" viewBox="0 0 700.000000 700.000000" preserveAspectRatio="xMidYMid meet">
<metadata>
Created by potrace 1.12, written by Peter Selinger 2001-2015
</metadata>
<g transform="translate(0.000000,700.000000) scale(0.100000,-0.100000)" fill="#000000" stroke="none">
<path d="M3065 6173 c-139 -18 -395 -76 -485 -110 -8 -3 -19 -7 -25 -9 -30 -8
-148 -61 -219 -98 -149 -79 -200 -109 -273 -163 -40 -29 -75 -53 -78 -53 -3 0
-13 -8 -23 -17 -10 -10 -35 -31 -57 -48 -21 -16 -63 -53 -93 -82 -30 -28 -60
-54 -68 -57 -8 -3 -14 -12 -14 -20 0 -8 -3 -16 -8 -18 -13 -6 -148 -164 -168
-196 -10 -18 -22 -32 -26 -32 -4 0 -8 -7 -8 -15 0 -8 -4 -15 -9 -15 -5 0 -34
-39 -64 -87 -147 -234 -296 -628 -312 -827 -3 -38 -10 -99 -15 -135 -12 -85
-12 -395 0 -486 5 -38 12 -97 16 -130 3 -33 8 -67 11 -75 3 -8 7 -24 8 -35 9
-65 71 -258 110 -342 8 -17 15 -34 15 -39 0 -38 174 -364 225 -421 9 -10 39
-48 66 -85 27 -38 54 -68 59 -68 6 0 10 -6 10 -13 0 -7 55 -68 123 -135 102
-101 195 -178 334 -276 21 -16 21 -16 21 -444 -1 -418 0 -428 21 -470 14 -28
34 -48 61 -62 39 -20 57 -20 1114 -20 1185 0 1131 -3 1177 61 11 16 17 29 14
29 -4 0 1 7 9 16 14 14 16 70 16 473 l0 458 40 28 c22 15 40 32 40 36 0 5 5 9
11 9 6 0 26 13 45 29 31 28 35 29 62 15 23 -11 74 -13 250 -11 207 2 222 3
249 23 15 12 37 36 48 55 19 32 20 55 23 349 2 199 -1 330 -8 357 -9 39 -7 51
29 140 21 54 47 124 57 155 l18 58 260 2 261 3 -3 45 c-3 39 -16 62 -116 195
-63 82 -163 220 -223 306 l-110 156 -12 109 c-7 60 -24 161 -38 224 -13 63
-26 123 -27 132 -1 10 -5 21 -9 24 -4 4 -7 18 -7 31 0 14 -5 34 -12 46 -7 12
-13 29 -15 38 -7 40 -121 315 -138 333 -6 6 -27 41 -48 77 -20 36 -43 72 -52
79 -8 7 -15 18 -15 26 0 7 -6 19 -13 26 -7 7 -48 60 -92 117 -103 134 -262
293 -389 387 -55 41 -108 80 -117 87 -8 7 -31 21 -50 31 -18 11 -36 22 -39 25
-14 16 -296 156 -345 171 -22 7 -49 17 -60 21 -75 32 -325 91 -458 109 -73 9
-395 12 -462 3z m543 -429 c17 -3 40 -15 50 -25 11 -10 33 -21 49 -25 15 -4
33 -10 38 -14 6 -4 21 -11 35 -15 14 -4 48 -18 75 -30 28 -13 61 -26 75 -29
14 -3 46 -22 72 -43 116 -95 165 -132 198 -148 47 -24 185 -159 200 -196 7
-16 16 -29 21 -29 5 0 9 -7 9 -15 0 -14 43 -94 70 -131 8 -12 37 -36 64 -55
27 -19 58 -51 69 -72 10 -20 23 -37 27 -37 5 0 14 -25 20 -55 9 -43 9 -82 0
-165 l-12 -109 -42 -33 c-53 -43 -74 -54 -165 -84 -42 -13 -85 -28 -96 -33
-11 -5 -38 -17 -59 -26 -59 -26 -174 -36 -453 -38 -139 -1 -253 -6 -253 -10 0
-4 -26 -20 -57 -34 -56 -25 -124 -70 -131 -85 -2 -5 -10 -8 -18 -8 -8 0 -14
-6 -14 -12 -1 -7 -23 -29 -51 -48 -27 -19 -52 -45 -55 -56 -3 -12 -16 -27 -28
-34 -13 -6 -35 -31 -50 -53 -25 -41 -56 -80 -95 -123 -11 -11 -29 -49 -41 -85
-12 -35 -25 -66 -29 -69 -4 -3 -34 -53 -66 -111 -33 -60 -83 -133 -116 -169
-33 -35 -59 -69 -59 -77 0 -7 -3 -13 -7 -13 -5 0 -27 -18 -50 -41 l-43 -40
-121 2 c-121 1 -122 2 -197 40 -85 45 -99 56 -276 226 -132 127 -196 201 -196
227 0 8 -6 19 -13 23 -7 4 -21 24 -31 44 -11 21 -36 56 -57 79 -28 31 -41 58
-50 97 -6 31 -20 81 -31 112 -32 88 -42 398 -17 543 10 59 23 115 28 125 5 10
25 52 45 93 82 175 142 254 282 378 55 49 272 192 291 192 7 0 21 9 32 21 15
16 101 64 126 69 2 1 33 13 67 26 35 14 108 38 163 54 106 30 159 47 187 61
10 5 32 9 50 9 18 0 44 6 58 13 14 7 45 14 69 16 25 1 49 5 54 8 5 3 78 9 161
13 221 10 260 11 294 4z"></path>
<path d="M2710 5090 l0 -160 -165 0 -166 0 3 -67 3 -68 163 -3 162 -2 0 -165
0 -165 70 0 70 0 0 165 0 165 160 0 160 0 0 39 c0 21 3 53 6 70 l7 31 -167 0
-166 0 0 160 0 160 -70 0 -70 0 0 -160z"></path>
</g>
</svg>