<?xml version="1.0" standalone="no"?>
<!DOCTYPE svg PUBLIC "-//W3C//DTD SVG 20010904//EN"
 "http://www.w3.org/TR/2001/REC-SVG-20010904/DTD/svg10.dtd">
<svg version="1.0" xmlns="http://www.w3.org/2000/svg"
 width="300.000000pt" height="275.000000pt" viewBox="0 0 300.000000 275.000000"
 preserveAspectRatio="xMidYMid meet">
<metadata>
Created by potrace 1.10, written by Peter Selinger 2001-2011
</metadata>
<g transform="translate(0.000000,275.000000) scale(0.100000,-0.100000)"
fill="#000000" stroke="none">
<path d="M440 1881 c-117 -37 -202 -113 -258 -230 -34 -70 -36 -81 -36 -172 0
-94 2 -101 39 -175 62 -121 153 -197 279 -230 159 -43 333 22 436 161 59 80
75 135 75 250 0 91 -3 106 -31 165 -94 197 -307 295 -504 231z"/>
<path d="M1398 1861 c-119 -39 -209 -120 -267 -241 -23 -49 -26 -67 -26 -160
0 -99 2 -109 34 -174 37 -75 119 -164 179 -195 189 -96 408 -49 532 115 163
216 90 514 -155 631 -96 45 -206 54 -297 24z"/>
<path d="M2295 1851 c-113 -41 -195 -116 -252 -231 -26 -50 -28 -65 -28 -165
0 -106 1 -113 35 -179 44 -88 111 -155 197 -198 65 -32 73 -33 183 -33 106 0
120 2 172 28 171 84 270 271 238 448 -25 139 -104 245 -227 306 -71 35 -84 38
-172 40 -73 2 -108 -2 -146 -16z"/>
</g>
</svg>
